<?xml version="1.0" standalone="no"?>
<!DOCTYPE svg PUBLIC "-//W3C//DTD SVG 20010904//EN"
 "http://www.w3.org/TR/2001/REC-SVG-20010904/DTD/svg10.dtd">
<svg version="1.0" xmlns="http://www.w3.org/2000/svg"
 width="512.000000pt" height="512.000000pt" viewBox="0 0 512.000000 512.000000"
 preserveAspectRatio="xMidYMid meet">
<metadata>
Created by potrace 1.16, written by Peter Selinger 2001-2019
</metadata>
<g transform="translate(0.000000,512.000000) scale(0.100000,-0.100000)"
fill="#A7A7A7" stroke="none">
<path d="M215 3987 c-83 -33 -146 -90 -187 -167 -31 -60 -33 -213 -4 -275 28
-59 2332 -2364 2395 -2396 39 -20 61 -24 141 -24 80 0 102 4 141 24 63 32
2367 2337 2395 2396 29 62 27 215 -4 275 -31 60 -93 122 -150 151 l-47 24
-2325 2 c-1766 1 -2332 -1 -2355 -10z"/>
</g>
</svg>
