<?xml version="1.0" standalone="no"?>
<!DOCTYPE svg PUBLIC "-//W3C//DTD SVG 20010904//EN"
 "http://www.w3.org/TR/2001/REC-SVG-20010904/DTD/svg10.dtd">
<svg version="1.0" xmlns="http://www.w3.org/2000/svg"
 width="512.000000pt" height="512.000000pt" viewBox="0 0 512.000000 512.000000"
 preserveAspectRatio="xMidYMid meet">
<metadata>
Created by potrace 1.16, written by Peter Selinger 2001-2019
</metadata>
<g transform="translate(0.000000,512.000000) scale(0.100000,-0.100000)"
fill="#ABADB1" stroke="none">
<path d="M2980 5113 c-23 -9 -60 -45 -76 -75 -12 -23 -14 -200 -14 -1115 0
-1068 0 -1089 20 -1121 60 -98 212 -97 266 3 10 19 22 35 26 35 25 0 780 -194
813 -209 49 -22 99 -70 128 -125 21 -40 22 -53 27 -423 5 -366 6 -383 26 -409
11 -15 33 -37 48 -48 27 -20 39 -21 404 -21 l377 0 33 23 c67 48 63 -14 60
1010 l-4 927 -26 101 c-109 414 -360 737 -720 929 -134 71 -217 97 -671 211
-232 58 -439 109 -459 115 -34 9 -38 13 -38 42 -1 49 -35 114 -72 137 -32 19
-111 26 -148 13z m1004 -977 c42 -17 77 -66 83 -116 4 -31 -2 -55 -30 -115
l-36 -75 55 0 c99 0 162 -49 171 -133 4 -38 -6 -63 -94 -237 -79 -157 -105
-199 -132 -217 -66 -44 -158 -20 -198 52 -31 54 -29 78 12 164 19 40 35 75 35
77 0 2 -25 4 -56 4 -99 0 -162 49 -171 133 -4 37 5 63 82 217 101 202 113 222
157 243 41 20 79 21 122 3z"/>
<path d="M1992 4940 c-20 -13 -41 -38 -53 -65 -19 -43 -19 -67 -17 -724 3
-669 3 -680 24 -707 11 -15 32 -36 46 -47 22 -17 547 -156 591 -157 16 0 17
45 17 800 l0 799 -37 10 c-238 63 -451 111 -490 111 -31 0 -60 -7 -81 -20z"/>
<path d="M1049 2535 c-357 -67 -657 -269 -854 -573 -123 -192 -195 -429 -195
-647 0 -79 3 -97 23 -126 62 -94 203 -89 260 9 12 21 21 67 27 144 5 62 19
146 30 187 91 327 352 586 686 683 69 20 102 23 249 23 149 0 180 -3 250 -24
229 -67 425 -208 551 -397 115 -173 148 -285 169 -564 19 -253 51 -383 136
-552 181 -359 528 -616 923 -683 114 -19 329 -19 442 0 530 91 953 518 1039
1047 8 51 15 128 15 171 l0 77 -155 0 -155 0 0 -69 c0 -38 -6 -102 -14 -143
-82 -424 -444 -753 -864 -786 -293 -23 -543 66 -756 268 -201 192 -284 390
-305 730 -22 369 -130 622 -368 863 -172 174 -356 279 -601 344 -83 22 -123
26 -277 29 -127 2 -202 -1 -256 -11z"/>
</g>
</svg>
