<?xml version="1.0" standalone="no"?>
<!DOCTYPE svg PUBLIC "-//W3C//DTD SVG 20010904//EN"
 "http://www.w3.org/TR/2001/REC-SVG-20010904/DTD/svg10.dtd">
<svg version="1.0" xmlns="http://www.w3.org/2000/svg"
 width="512.000000pt" height="512.000000pt" viewBox="0 0 512.000000 512.000000"
 preserveAspectRatio="xMidYMid meet">
<metadata>
Created by potrace 1.16, written by Peter Selinger 2001-2019
</metadata>
<g transform="translate(0.000000,512.000000) scale(0.100000,-0.100000)"
fill="#000000" stroke="none">
<path d="M3025 4781 c-129 -38 -254 -122 -332 -225 -45 -60 -95 -157 -109
-210 l-6 -26 -533 0 c-495 0 -538 -1 -594 -19 -147 -46 -272 -172 -315 -320
-11 -37 -16 -95 -16 -178 l0 -123 159 0 158 0 5 99 c7 136 40 190 134 211 21
5 255 10 519 10 l480 0 23 -65 c66 -183 220 -328 415 -390 76 -24 87 -25 373
-25 l294 0 0 80 0 80 160 0 160 0 0 160 0 160 -160 0 -160 0 0 160 0 160 160
0 160 0 0 160 0 160 -160 0 -160 0 0 80 0 80 -297 -1 c-253 0 -307 -3 -358
-18z"/>
<path d="M828 3349 c-110 -26 -257 -121 -329 -211 -65 -82 -92 -151 -183 -468
-149 -522 -156 -578 -156 -1312 l0 -558 165 0 165 0 0 51 c0 83 29 188 80 294
84 172 193 281 365 365 121 59 218 81 346 81 257 0 506 -129 648 -335 79 -115
141 -293 141 -405 l0 -51 570 0 570 0 0 51 c0 83 29 188 80 294 84 172 193
281 365 365 121 59 218 81 346 81 257 0 506 -129 648 -335 79 -115 141 -293
141 -405 l0 -51 85 0 86 0 -3 548 -3 547 -26 63 c-39 91 -87 167 -145 227 -95
100 -145 124 -515 247 l-341 113 -368 306 c-202 169 -399 325 -436 347 -85 51
-191 95 -309 130 l-90 26 -930 2 c-520 1 -946 -2 -967 -7z m2021 -1111 l238
-3 -286 -413 -286 -413 -3 255 -2 256 -239 2 -239 3 287 413 286 412 3 -255 2
-255 239 -2z"/>
<path d="M1128 1261 c-145 -47 -269 -174 -312 -320 -21 -71 -21 -211 0 -282
43 -148 168 -274 315 -320 82 -26 216 -26 298 0 147 46 272 172 315 320 21 71
21 211 0 282 -43 148 -168 274 -315 320 -81 25 -222 25 -301 0z"/>
<path d="M3848 1261 c-74 -24 -144 -69 -200 -129 -91 -97 -128 -194 -128 -332
0 -138 37 -235 128 -332 95 -101 206 -148 352 -148 146 0 257 47 352 148 91
97 128 194 128 332 0 138 -37 235 -128 332 -57 61 -127 105 -203 129 -81 25
-222 25 -301 0z"/>
</g>
</svg>
