<svg width="17" height="20" viewBox="0 0 17 20" fill="none" xmlns="http://www.w3.org/2000/svg">
<circle cx="8" cy="8" r="5" fill="white"/>
<g clip-path="url(#clip0_1593_373)">
<path fill-rule="evenodd" clip-rule="evenodd" d="M8.3622 19.3144C8.75739 19.3144 15.8186 11.7698 15.8186 7.65175C15.8186 3.53367 12.4802 0.195312 8.3622 0.195312C4.24412 0.195312 0.905762 3.53367 0.905762 7.65175C0.905762 11.7698 7.96702 19.3144 8.3622 19.3144ZM8.36221 11.3812C10.4501 11.3812 12.1426 9.68863 12.1426 7.60076C12.1426 5.51289 10.4501 3.82034 8.36221 3.82034C6.27435 3.82034 4.5818 5.51289 4.5818 7.60076C4.5818 9.68863 6.27435 11.3812 8.36221 11.3812Z" fill="#1DAEEF"/>
<path fill-rule="evenodd" clip-rule="evenodd" d="M0.905762 7.65175C0.905762 11.7698 7.96702 19.3144 8.3622 19.3144V11.3812C6.27434 11.3811 4.5818 9.68862 4.5818 7.60076C4.5818 5.5129 6.27434 3.82035 8.3622 3.82034V0.195312C4.24412 0.195312 0.905762 3.53367 0.905762 7.65175Z" fill="#3EC3FF"/>
</g>
<defs>
<clipPath id="clip0_1593_373">
<rect width="16" height="20" fill="white" transform="translate(0.800049)"/>
</clipPath>
</defs>
</svg>
