<?xml version="1.0" standalone="no"?>
<!DOCTYPE svg PUBLIC "-//W3C//DTD SVG 20010904//EN"
 "http://www.w3.org/TR/2001/REC-SVG-20010904/DTD/svg10.dtd">
<svg version="1.0" xmlns="http://www.w3.org/2000/svg"
 width="512.000000pt" height="512.000000pt" viewBox="0 0 512.000000 512.000000"
 preserveAspectRatio="xMidYMid meet">
<metadata>
Created by potrace 1.16, written by Peter Selinger 2001-2019
</metadata>
<g transform="translate(0.000000,512.000000) scale(0.100000,-0.100000)"
fill="#ABADB1" stroke="none">
<path d="M1765 4469 c-31 -17 -615 -601 -631 -631 -8 -15 -14 -51 -14 -80 0
-97 61 -158 158 -158 29 0 63 5 75 11 12 6 91 79 175 162 l152 152 0 -1590 c0
-1569 0 -1590 20 -1623 30 -48 75 -72 140 -72 65 0 110 24 140 72 20 33 20 54
20 1623 l0 1590 153 -152 c83 -83 162 -156 174 -162 12 -6 46 -11 75 -11 97 0
158 61 158 158 0 29 -5 63 -11 75 -16 31 -598 615 -631 633 -32 16 -124 18
-153 3z"/>
<path d="M3192 4460 c-18 -11 -41 -34 -52 -52 -20 -33 -20 -54 -20 -1623 l0
-1590 -152 152 c-84 83 -163 156 -175 162 -12 6 -46 11 -75 11 -97 0 -158 -61
-158 -158 0 -29 5 -63 11 -75 16 -31 598 -615 631 -633 35 -18 121 -18 156 0
33 18 615 602 631 633 6 12 11 46 11 75 0 97 -61 158 -158 158 -29 0 -63 -5
-75 -11 -12 -6 -91 -79 -174 -162 l-153 -152 0 1590 c0 1569 0 1590 -20 1623
-30 48 -75 72 -140 72 -37 0 -66 -6 -88 -20z"/>
</g>
</svg>
