<?xml version="1.0" standalone="no"?>
<!DOCTYPE svg PUBLIC "-//W3C//DTD SVG 20010904//EN"
 "http://www.w3.org/TR/2001/REC-SVG-20010904/DTD/svg10.dtd">
<svg version="1.0" xmlns="http://www.w3.org/2000/svg"
 width="512.000000pt" height="512.000000pt" viewBox="0 0 512.000000 512.000000"
 preserveAspectRatio="xMidYMid meet">
<metadata>
Created by potrace 1.16, written by Peter Selinger 2001-2019
</metadata>
<g transform="translate(0.000000,512.000000) scale(0.100000,-0.100000)"
fill="#A7A7A7" stroke="none">
<path d="M2455 3987 c-16 -7 -43 -20 -60 -29 -53 -29 -2350 -2338 -2371 -2383
-29 -62 -27 -215 4 -275 31 -60 93 -122 150 -151 l47 -24 2335 0 2335 0 47 24
c57 29 119 91 150 151 19 38 23 60 23 140 0 80 -4 102 -24 141 -32 64 -2338
2367 -2396 2395 -49 23 -195 30 -240 11z"/>
</g>
</svg>
