<svg width="88" height="92" viewBox="0 0 88 92" fill="none" xmlns="http://www.w3.org/2000/svg">
<path fill-rule="evenodd" clip-rule="evenodd" d="M65.4438 21.4438L66 22C78.1503 34.1503 78.1503 53.8497 66 66C53.8497 78.1503 34.1503 78.1503 22 66C9.84974 53.8497 9.84974 34.1503 22 22L22.5562 21.4438H65.4438ZM63.8554 25.2416H24.1446C14.0215 35.9455 14.2018 52.8309 24.6854 63.3146C35.3526 73.9817 52.6474 73.9817 63.3146 63.3146C73.7982 52.8309 73.9785 35.9455 63.8554 25.2416Z" fill="black"/>
<path fill-rule="evenodd" clip-rule="evenodd" d="M55.4163 76.5402H32.7644C29.19 76.5402 26.2924 79.4378 26.2924 83.0122C26.2924 86.5866 29.19 89.4842 32.7644 89.4842H55.4163C58.9907 89.4842 61.8883 86.5866 61.8883 83.0122C61.8883 79.4378 58.9907 76.5402 55.4163 76.5402ZM32.7644 74.2031C27.8993 74.2031 23.9553 78.1471 23.9553 83.0122C23.9553 87.8773 27.8993 91.8213 32.7644 91.8213H55.4163C60.2815 91.8213 64.2254 87.8773 64.2254 83.0122C64.2254 78.1471 60.2815 74.2031 55.4163 74.2031H32.7644Z" fill="black"/>
<path d="M57.9333 82.6975C57.9333 85.6513 55.5388 88.0459 52.5849 88.0459C49.6311 88.0459 47.2366 85.6513 47.2366 82.6975C47.2366 79.7437 49.6311 77.3491 52.5849 77.3491C55.5388 77.3491 57.9333 79.7437 57.9333 82.6975ZM48.8411 82.6975C48.8411 84.7652 50.5173 86.4414 52.5849 86.4414C54.6526 86.4414 56.3288 84.7652 56.3288 82.6975C56.3288 80.6298 54.6526 78.9536 52.5849 78.9536C50.5173 78.9536 48.8411 80.6298 48.8411 82.6975Z" fill="black"/>
<path d="M40.9443 82.6975C40.9443 85.6513 38.5498 88.0459 35.5959 88.0459C32.6421 88.0459 30.2476 85.6513 30.2476 82.6975C30.2476 79.7437 32.6421 77.3491 35.5959 77.3491C38.5498 77.3491 40.9443 79.7437 40.9443 82.6975ZM31.8521 82.6975C31.8521 84.7652 33.5283 86.4414 35.5959 86.4414C37.6636 86.4414 39.3398 84.7652 39.3398 82.6975C39.3398 80.6298 37.6636 78.9536 35.5959 78.9536C33.5283 78.9536 31.8521 80.6298 31.8521 82.6975Z" fill="black"/>
<circle cx="52.5847" cy="82.6973" r="0.94383" fill="black"/>
<circle cx="35.5959" cy="82.6973" r="0.94383" fill="black"/>
<path d="M34.9753 44.0644C34.9753 47.9142 31.8544 51.0351 28.0046 51.0351C24.1548 51.0351 21.0339 47.9142 21.0339 44.0644C21.0339 40.2146 24.1548 37.0938 28.0046 37.0938C31.8544 37.0938 34.9753 40.2146 34.9753 44.0644ZM22.2189 44.0644C22.2189 47.2597 24.8093 49.8501 28.0046 49.8501C31.1999 49.8501 33.7903 47.2597 33.7903 44.0644C33.7903 40.8691 31.1999 38.2788 28.0046 38.2788C24.8093 38.2788 22.2189 40.8691 22.2189 44.0644Z" fill="black"/>
<path d="M50.9081 44.0644C50.9081 47.9142 47.7873 51.0351 43.9375 51.0351C40.0877 51.0351 36.9668 47.9142 36.9668 44.0644C36.9668 40.2146 40.0877 37.0938 43.9375 37.0938C47.7873 37.0938 50.9081 40.2146 50.9081 44.0644ZM38.1518 44.0644C38.1518 47.2597 40.7421 49.8501 43.9375 49.8501C47.1328 49.8501 49.7231 47.2597 49.7231 44.0644C49.7231 40.8691 47.1328 38.2788 43.9375 38.2788C40.7421 38.2788 38.1518 40.8691 38.1518 44.0644Z" fill="black"/>
<path d="M66.8412 44.0644C66.8412 47.9142 63.7204 51.0351 59.8706 51.0351C56.0208 51.0351 52.8999 47.9142 52.8999 44.0644C52.8999 40.2146 56.0208 37.0938 59.8706 37.0938C63.7204 37.0938 66.8412 40.2146 66.8412 44.0644ZM54.0849 44.0644C54.0849 47.2597 56.6752 49.8501 59.8706 49.8501C63.0659 49.8501 65.6562 47.2597 65.6562 44.0644C65.6562 40.8691 63.0659 38.2788 59.8706 38.2788C56.6752 38.2788 54.0849 40.8691 54.0849 44.0644Z" fill="black"/>
<path d="M41.946 58.0058C41.946 61.8556 38.8251 64.9765 34.9753 64.9765C31.1255 64.9765 28.0046 61.8556 28.0046 58.0058C28.0046 54.156 31.1255 51.0352 34.9753 51.0352C38.8251 51.0352 41.946 54.156 41.946 58.0058ZM29.1897 58.0058C29.1897 61.2012 31.78 63.7915 34.9753 63.7915C38.1706 63.7915 40.761 61.2012 40.761 58.0058C40.761 54.8105 38.1706 52.2202 34.9753 52.2202C31.78 52.2202 29.1897 54.8105 29.1897 58.0058Z" fill="black"/>
<path d="M58.8747 58.0058C58.8747 61.8556 55.7538 64.9765 51.904 64.9765C48.0542 64.9765 44.9333 61.8556 44.9333 58.0058C44.9333 54.156 48.0542 51.0352 51.904 51.0352C55.7538 51.0352 58.8747 54.156 58.8747 58.0058ZM46.1184 58.0058C46.1184 61.2012 48.7087 63.7915 51.904 63.7915C55.0993 63.7915 57.6897 61.2012 57.6897 58.0058C57.6897 54.8105 55.0993 52.2202 51.904 52.2202C48.7087 52.2202 46.1184 54.8105 46.1184 58.0058Z" fill="black"/>
<path d="M55.3892 32.3637C55.3892 34.4261 53.7173 36.098 51.6549 36.098C49.5926 36.098 47.9207 34.4261 47.9207 32.3637C47.9207 30.3013 49.5926 28.6294 51.6549 28.6294C53.7173 28.6294 55.3892 30.3013 55.3892 32.3637ZM49.2277 32.3637C49.2277 33.7042 50.3144 34.791 51.6549 34.791C52.9955 34.791 54.0822 33.7042 54.0822 32.3637C54.0822 31.0231 52.9955 29.9364 51.6549 29.9364C50.3144 29.9364 49.2277 31.0231 49.2277 32.3637Z" fill="black"/>
<path d="M39.4564 32.3637C39.4564 34.4261 37.7845 36.098 35.7221 36.098C33.6597 36.098 31.9878 34.4261 31.9878 32.3637C31.9878 30.3013 33.6597 28.6294 35.7221 28.6294C37.7845 28.6294 39.4564 30.3013 39.4564 32.3637ZM33.2948 32.3637C33.2948 33.7042 34.3815 34.791 35.7221 34.791C37.0626 34.791 38.1494 33.7042 38.1494 32.3637C38.1494 31.0231 37.0626 29.9364 35.7221 29.9364C34.3815 29.9364 33.2948 31.0231 33.2948 32.3637Z" fill="black"/>
</svg>
