<svg width="63" height="82" viewBox="0 0 63 82" fill="none" xmlns="http://www.w3.org/2000/svg">
<g clip-path="url(#clip0_854_472)">
<path d="M63 31.8889C63 49.5007 48.897 63.7778 31.5 63.7778C14.103 63.7778 0 49.5007 0 31.8889C0 14.2771 14.103 0 31.5 0C48.897 0 63 14.2771 63 31.8889ZM3.52203 31.8889C3.52203 47.5314 16.0482 60.2123 31.5 60.2123C46.9518 60.2123 59.478 47.5314 59.478 31.8889C59.478 16.2463 46.9518 3.56552 31.5 3.56552C16.0482 3.56552 3.52203 16.2463 3.52203 31.8889Z" fill="black"/>
<path d="M39.4434 45.4761C39.4434 49.7642 36.0096 53.2404 31.7738 53.2404C27.538 53.2404 24.1042 49.7642 24.1042 45.4761C24.1042 41.1881 27.538 37.7119 31.7738 37.7119C36.0096 37.7119 39.4434 41.1881 39.4434 45.4761ZM25.4081 45.4761C25.4081 49.0353 28.2581 51.9204 31.7738 51.9204C35.2895 51.9204 38.1396 49.0353 38.1396 45.4761C38.1396 41.917 35.2895 39.0318 31.7738 39.0318C28.2581 39.0318 25.4081 41.917 25.4081 45.4761Z" fill="black"/>
<path d="M26.2956 21.6285C26.2956 25.9166 22.8619 29.3928 18.6261 29.3928C14.3903 29.3928 10.9565 25.9166 10.9565 21.6285C10.9565 17.3404 14.3903 13.8643 18.6261 13.8643C22.8619 13.8643 26.2956 17.3404 26.2956 21.6285ZM12.2603 21.6285C12.2603 25.1876 15.1104 28.0728 18.6261 28.0728C22.1418 28.0728 24.9918 25.1876 24.9918 21.6285C24.9918 18.0694 22.1418 15.1842 18.6261 15.1842C15.1104 15.1842 12.2603 18.0694 12.2603 21.6285Z" fill="black"/>
<path d="M52.0437 21.6285C52.0437 25.9166 48.61 29.3928 44.3742 29.3928C40.1384 29.3928 36.7046 25.9166 36.7046 21.6285C36.7046 17.3404 40.1384 13.8643 44.3742 13.8643C48.61 13.8643 52.0437 17.3404 52.0437 21.6285ZM38.0084 21.6285C38.0084 25.1876 40.8585 28.0728 44.3742 28.0728C47.8899 28.0728 50.7399 25.1876 50.7399 21.6285C50.7399 18.0694 47.8899 15.1842 44.3742 15.1842C40.8585 15.1842 38.0084 18.0694 38.0084 21.6285Z" fill="black"/>
<path d="M52.5911 39.8913C52.5911 42.4948 50.5064 44.6053 47.9346 44.6053C45.3629 44.6053 43.2781 42.4948 43.2781 39.8913C43.2781 37.2878 45.3629 35.1772 47.9346 35.1772C50.5064 35.1772 52.5911 37.2878 52.5911 39.8913ZM44.9079 39.8913C44.9079 41.5835 46.263 42.9554 47.9346 42.9554C49.6062 42.9554 50.9614 41.5835 50.9614 39.8913C50.9614 38.199 49.6062 36.8271 47.9346 36.8271C46.263 36.8271 44.9079 38.199 44.9079 39.8913Z" fill="black"/>
<path d="M20.2695 39.8913C20.2695 42.4948 18.1848 44.6053 15.613 44.6053C13.0413 44.6053 10.9565 42.4948 10.9565 39.8913C10.9565 37.2878 13.0413 35.1772 15.613 35.1772C18.1848 35.1772 20.2695 37.2878 20.2695 39.8913ZM12.5863 39.8913C12.5863 41.5835 13.9414 42.9554 15.613 42.9554C17.2846 42.9554 18.6398 41.5835 18.6398 39.8913C18.6398 38.199 17.2846 36.8271 15.613 36.8271C13.9414 36.8271 12.5863 38.199 12.5863 39.8913Z" fill="black"/>
<path fill-rule="evenodd" clip-rule="evenodd" d="M44.3078 64.9796H19.3847C15.4519 64.9796 12.2638 68.2071 12.2638 72.1887C12.2638 76.1696 15.4519 79.3975 19.3847 79.3975H44.3078C48.2405 79.3975 51.4287 76.1696 51.4287 72.1887C51.4287 68.2071 48.2405 64.9796 44.3078 64.9796ZM19.3847 62.3765C14.0318 62.3765 9.69238 66.7695 9.69238 72.1887C9.69238 77.6072 14.0318 82.0007 19.3847 82.0007H44.3078C49.6607 82.0007 54.0001 77.6072 54.0001 72.1887C54.0001 66.7695 49.6607 62.3765 44.3078 62.3765H19.3847Z" fill="black"/>
<path d="M47.0769 71.8377C47.0769 75.1281 44.4422 77.7951 41.1922 77.7951C37.9422 77.7951 35.3076 75.1281 35.3076 71.8377C35.3076 68.548 37.9422 65.8804 41.1922 65.8804C44.4422 65.8804 47.0769 68.548 47.0769 71.8377ZM37.073 71.8377C37.073 74.1409 38.9173 76.008 41.1922 76.008C43.4672 76.008 45.3114 74.1409 45.3114 71.8377C45.3114 69.5346 43.4672 67.6681 41.1922 67.6681C38.9173 67.6681 37.073 69.5346 37.073 71.8377Z" fill="black"/>
<path d="M28.3847 71.8377C28.3847 75.1281 25.7501 77.7951 22.5001 77.7951C19.2501 77.7951 16.6155 75.1281 16.6155 71.8377C16.6155 68.548 19.2501 65.8804 22.5001 65.8804C25.7501 65.8804 28.3847 68.548 28.3847 71.8377ZM18.3808 71.8377C18.3808 74.1409 20.2251 76.008 22.5001 76.008C24.7751 76.008 26.6193 74.1409 26.6193 71.8377C26.6193 69.5346 24.7751 67.6681 22.5001 67.6681C20.2251 67.6681 18.3808 69.5346 18.3808 71.8377Z" fill="black"/>
<path d="M41.1923 72.8892C41.7658 72.8892 42.2307 72.4185 42.2307 71.8379C42.2307 71.2573 41.7658 70.7866 41.1923 70.7866C40.6187 70.7866 40.1538 71.2573 40.1538 71.8379C40.1538 72.4185 40.6187 72.8892 41.1923 72.8892Z" fill="black"/>
<path d="M22.4999 72.8892C23.0734 72.8892 23.5383 72.4185 23.5383 71.8379C23.5383 71.2573 23.0734 70.7866 22.4999 70.7866C21.9264 70.7866 21.4614 71.2573 21.4614 71.8379C21.4614 72.4185 21.9264 72.8892 22.4999 72.8892Z" fill="black"/>
</g>
<defs>
<clipPath id="clip0_854_472">
<rect width="63" height="82" fill="white"/>
</clipPath>
</defs>
</svg>
