<svg width="64" height="64" viewBox="0 0 64 64" fill="none" xmlns="http://www.w3.org/2000/svg">
<path d="M64 32C64 49.6731 49.6731 64 32 64C14.3269 64 0 49.6731 0 32C0 14.3269 14.3269 0 32 0C49.6731 0 64 14.3269 64 32ZM3.84 32C3.84 47.5523 16.4477 60.16 32 60.16C47.5523 60.16 60.16 47.5523 60.16 32C60.16 16.4477 47.5523 3.84 32 3.84C16.4477 3.84 3.84 16.4477 3.84 32Z" fill="black"/>
<path d="M23.3741 32.2784C23.3741 35.9667 20.3841 38.9566 16.6958 38.9566C13.0075 38.9566 10.0176 35.9667 10.0176 32.2784C10.0176 28.5901 13.0075 25.6001 16.6958 25.6001C20.3841 25.6001 23.3741 28.5901 23.3741 32.2784ZM12.4218 32.2784C12.4218 34.6389 14.3353 36.5524 16.6958 36.5524C19.0564 36.5524 20.9699 34.6389 20.9699 32.2784C20.9699 29.9178 19.0564 28.0043 16.6958 28.0043C14.3353 28.0043 12.4218 29.9178 12.4218 32.2784Z" fill="black"/>
<path d="M54.5391 32.2784C54.5391 35.9667 51.5492 38.9566 47.8609 38.9566C44.1726 38.9566 41.1826 35.9667 41.1826 32.2784C41.1826 28.5901 44.1726 25.6001 47.8609 25.6001C51.5492 25.6001 54.5391 28.5901 54.5391 32.2784ZM43.5868 32.2784C43.5868 34.6389 45.5004 36.5524 47.8609 36.5524C50.2214 36.5524 52.135 34.6389 52.135 32.2784C52.135 29.9178 50.2214 28.0043 47.8609 28.0043C45.5004 28.0043 43.5868 29.9178 43.5868 32.2784Z" fill="black"/>
<path d="M41.1826 16.9741C41.1826 22.0455 37.0714 26.1567 32 26.1567C26.9286 26.1567 22.8174 22.0455 22.8174 16.9741C22.8174 11.9027 26.9286 7.7915 32 7.7915C37.0714 7.7915 41.1826 11.9027 41.1826 16.9741ZM24.3784 16.9741C24.3784 21.1834 27.7907 24.5957 32 24.5957C36.2093 24.5957 39.6216 21.1834 39.6216 16.9741C39.6216 12.7648 36.2093 9.35255 32 9.35255C27.7907 9.35255 24.3784 12.7648 24.3784 16.9741Z" fill="black"/>
<path d="M34.4487 12.6899C34.4487 14.0423 33.3523 15.1386 32 15.1386C30.6476 15.1386 29.5513 14.0423 29.5513 12.6899C29.5513 11.3375 30.6476 10.2412 32 10.2412C33.3523 10.2412 34.4487 11.3375 34.4487 12.6899ZM30.2859 12.6899C30.2859 13.6366 31.0533 14.404 32 14.404C32.9466 14.404 33.7141 13.6366 33.7141 12.6899C33.7141 11.7432 32.9466 10.9758 32 10.9758C31.0533 10.9758 30.2859 11.7432 30.2859 12.6899Z" fill="black"/>
<path d="M30.1633 16.9731C30.1633 18.3255 29.0669 19.4218 27.7146 19.4218C26.3622 19.4218 25.2659 18.3255 25.2659 16.9731C25.2659 15.6207 26.3622 14.5244 27.7146 14.5244C29.0669 14.5244 30.1633 15.6207 30.1633 16.9731ZM26.0005 16.9731C26.0005 17.9198 26.7679 18.6872 27.7146 18.6872C28.6612 18.6872 29.4287 17.9198 29.4287 16.9731C29.4287 16.0264 28.6612 15.259 27.7146 15.259C26.7679 15.259 26.0005 16.0264 26.0005 16.9731Z" fill="black"/>
<path d="M34.4487 21.2588C34.4487 22.6111 33.3523 23.7074 32 23.7074C30.6476 23.7074 29.5513 22.6111 29.5513 21.2588C29.5513 19.9064 30.6476 18.8101 32 18.8101C33.3523 18.8101 34.4487 19.9064 34.4487 21.2588ZM30.2859 21.2588C30.2859 22.2054 31.0533 22.9728 32 22.9728C32.9466 22.9728 33.7141 22.2054 33.7141 21.2588C33.7141 20.3121 32.9466 19.5447 32 19.5447C31.0533 19.5447 30.2859 20.3121 30.2859 21.2588Z" fill="black"/>
<path d="M38.7338 16.9731C38.7338 18.3255 37.6375 19.4218 36.2851 19.4218C34.9327 19.4218 33.8364 18.3255 33.8364 16.9731C33.8364 15.6207 34.9327 14.5244 36.2851 14.5244C37.6375 14.5244 38.7338 15.6207 38.7338 16.9731ZM34.571 16.9731C34.571 17.9198 35.3385 18.6872 36.2851 18.6872C37.2318 18.6872 37.9992 17.9198 37.9992 16.9731C37.9992 16.0264 37.2318 15.259 36.2851 15.259C35.3385 15.259 34.571 16.0264 34.571 16.9731Z" fill="black"/>
<path d="M41.1826 47.5825C41.1826 52.6539 37.0714 56.7651 32 56.7651C26.9286 56.7651 22.8174 52.6539 22.8174 47.5825C22.8174 42.5111 26.9286 38.3999 32 38.3999C37.0714 38.3999 41.1826 42.5111 41.1826 47.5825ZM24.3784 47.5825C24.3784 51.7918 27.7907 55.2041 32 55.2041C36.2093 55.2041 39.6216 51.7918 39.6216 47.5825C39.6216 43.3732 36.2093 39.9609 32 39.9609C27.7907 39.9609 24.3784 43.3732 24.3784 47.5825Z" fill="black"/>
<path d="M34.4487 43.2973C34.4487 44.6497 33.3523 45.746 32 45.746C30.6476 45.746 29.5513 44.6497 29.5513 43.2973C29.5513 41.945 30.6476 40.8486 32 40.8486C33.3523 40.8486 34.4487 41.945 34.4487 43.2973ZM30.2859 43.2973C30.2859 44.244 31.0533 45.0114 32 45.0114C32.9466 45.0114 33.7141 44.244 33.7141 43.2973C33.7141 42.3507 32.9466 41.5832 32 41.5832C31.0533 41.5832 30.2859 42.3507 30.2859 43.2973Z" fill="black"/>
<path d="M30.1633 47.5825C30.1633 48.9349 29.0669 50.0312 27.7146 50.0312C26.3622 50.0312 25.2659 48.9349 25.2659 47.5825C25.2659 46.2301 26.3622 45.1338 27.7146 45.1338C29.0669 45.1338 30.1633 46.2301 30.1633 47.5825ZM26.0005 47.5825C26.0005 48.5291 26.7679 49.2966 27.7146 49.2966C28.6612 49.2966 29.4287 48.5291 29.4287 47.5825C29.4287 46.6358 28.6612 45.8684 27.7146 45.8684C26.7679 45.8684 26.0005 46.6358 26.0005 47.5825Z" fill="black"/>
<path d="M34.4487 51.8681C34.4487 53.2205 33.3523 54.3168 32 54.3168C30.6476 54.3168 29.5513 53.2205 29.5513 51.8681C29.5513 50.5158 30.6476 49.4194 32 49.4194C33.3523 49.4194 34.4487 50.5158 34.4487 51.8681ZM30.2859 51.8681C30.2859 52.8148 31.0533 53.5822 32 53.5822C32.9466 53.5822 33.7141 52.8148 33.7141 51.8681C33.7141 50.9215 32.9466 50.154 32 50.154C31.0533 50.154 30.2859 50.9215 30.2859 51.8681Z" fill="black"/>
<path d="M38.7338 47.5825C38.7338 48.9349 37.6375 50.0312 36.2851 50.0312C34.9327 50.0312 33.8364 48.9349 33.8364 47.5825C33.8364 46.2301 34.9327 45.1338 36.2851 45.1338C37.6375 45.1338 38.7338 46.2301 38.7338 47.5825ZM34.571 47.5825C34.571 48.5291 35.3385 49.2966 36.2851 49.2966C37.2318 49.2966 37.9992 48.5291 37.9992 47.5825C37.9992 46.6358 37.2318 45.8684 36.2851 45.8684C35.3385 45.8684 34.571 46.6358 34.571 47.5825Z" fill="black"/>
<rect x="56.6372" y="14.958" width="14.4696" height="7.79131" rx="3" transform="rotate(-143 56.6372 14.958)" fill="black"/>
<rect x="52.7405" y="15.5059" width="8.90435" height="8.34783" rx="3" transform="rotate(-143 52.7405 15.5059)" fill="white"/>
<rect x="17.9146" y="6.77832" width="14.4696" height="7.79131" rx="3" transform="rotate(143 17.9146 6.77832)" fill="black"/>
<rect x="17.3667" y="10.6758" width="8.90435" height="8.34783" rx="3" transform="rotate(143 17.3667 10.6758)" fill="white"/>
</svg>
