<svg width="63" height="69" viewBox="0 0 63 69" fill="none" xmlns="http://www.w3.org/2000/svg">
<path d="M63 31.5C63 48.897 48.897 63 31.5 63C14.103 63 0 48.897 0 31.5C0 14.103 14.103 0 31.5 0C48.897 0 63 14.103 63 31.5ZM3.52203 31.5C3.52203 46.9518 16.0482 59.478 31.5 59.478C46.9518 59.478 59.478 46.9518 59.478 31.5C59.478 16.0482 46.9518 3.52203 31.5 3.52203C16.0482 3.52203 3.52203 16.0482 3.52203 31.5Z" fill="black"/>
<rect x="24.6523" y="60.4961" width="14.2435" height="7.66957" rx="3" fill="black"/>
<rect x="27.3914" y="57.7568" width="8.76522" height="8.21739" rx="3" fill="white"/>
<path d="M39.4434 44.9215C39.4434 49.1573 36.0096 52.5911 31.7738 52.5911C27.538 52.5911 24.1042 49.1573 24.1042 44.9215C24.1042 40.6857 27.538 37.252 31.7738 37.252C36.0096 37.252 39.4434 40.6857 39.4434 44.9215ZM25.4081 44.9215C25.4081 48.4372 28.2581 51.2873 31.7738 51.2873C35.2895 51.2873 38.1396 48.4372 38.1396 44.9215C38.1396 41.4058 35.2895 38.5558 31.7738 38.5558C28.2581 38.5558 25.4081 41.4058 25.4081 44.9215Z" fill="black"/>
<path d="M26.2957 21.3649C26.2957 25.6007 22.8619 29.0344 18.6261 29.0344C14.3903 29.0344 10.9565 25.6007 10.9565 21.3649C10.9565 17.1291 14.3903 13.6953 18.6261 13.6953C22.8619 13.6953 26.2957 17.1291 26.2957 21.3649ZM12.2604 21.3649C12.2604 24.8806 15.1104 27.7306 18.6261 27.7306C22.1418 27.7306 24.9918 24.8806 24.9918 21.3649C24.9918 17.8492 22.1418 14.9991 18.6261 14.9991C15.1104 14.9991 12.2604 17.8492 12.2604 21.3649Z" fill="black"/>
<path d="M52.0435 21.3649C52.0435 25.6007 48.6097 29.0344 44.3739 29.0344C40.1381 29.0344 36.7043 25.6007 36.7043 21.3649C36.7043 17.1291 40.1381 13.6953 44.3739 13.6953C48.6097 13.6953 52.0435 17.1291 52.0435 21.3649ZM38.0082 21.3649C38.0082 24.8806 40.8582 27.7306 44.3739 27.7306C47.8896 27.7306 50.7396 24.8806 50.7396 21.3649C50.7396 17.8492 47.8896 14.9991 44.3739 14.9991C40.8582 14.9991 38.0082 17.8492 38.0082 21.3649Z" fill="black"/>
<path d="M52.5914 39.4046C52.5914 41.9763 50.5066 44.0611 47.9348 44.0611C45.3631 44.0611 43.2783 41.9763 43.2783 39.4046C43.2783 36.8328 45.3631 34.748 47.9348 34.748C50.5066 34.748 52.5914 36.8328 52.5914 39.4046ZM44.9081 39.4046C44.9081 41.0762 46.2632 42.4313 47.9348 42.4313C49.6065 42.4313 50.9616 41.0762 50.9616 39.4046C50.9616 37.7329 49.6065 36.3778 47.9348 36.3778C46.2632 36.3778 44.9081 37.7329 44.9081 39.4046Z" fill="black"/>
<path d="M20.2696 39.4046C20.2696 41.9763 18.1848 44.0611 15.6131 44.0611C13.0413 44.0611 10.9565 41.9763 10.9565 39.4046C10.9565 36.8328 13.0413 34.748 15.6131 34.748C18.1848 34.748 20.2696 36.8328 20.2696 39.4046ZM12.5863 39.4046C12.5863 41.0762 13.9414 42.4313 15.6131 42.4313C17.2847 42.4313 18.6398 41.0762 18.6398 39.4046C18.6398 37.7329 17.2847 36.3778 15.6131 36.3778C13.9414 36.3778 12.5863 37.7329 12.5863 39.4046Z" fill="black"/>
</svg>
